<?xml version="1.0" encoding="UTF-8" standalone="no"?>
<!DOCTYPE svg PUBLIC "-//W3C//DTD SVG 1.1//EN"
 "http://www.w3.org/Graphics/SVG/1.1/DTD/svg11.dtd">
<!-- Generated by graphviz version 2.26.0 (20091210.2329)
 -->
<!-- Title: G Pages: 1 -->
<svg width="670pt" height="531pt"
 viewBox="0.00 0.00 670.00 531.00" xmlns="http://www.w3.org/2000/svg" xmlns:xlink="http://www.w3.org/1999/xlink">
<g id="graph1" class="graph" transform="scale(1 1) rotate(0) translate(4 527)">
<title>G</title>
<polygon fill="white" stroke="white" points="-4,5 -4,-527 667,-527 667,5 -4,5"/>
<g id="graph2" class="cluster"><title>cluster_global</title>
<polyline fill="none" stroke="gray" points="20,-8 642,-8 "/>
<path fill="none" stroke="gray" d="M642,-8C648,-8 654,-14 654,-20"/>
<polyline fill="none" stroke="gray" points="654,-20 654,-503 "/>
<path fill="none" stroke="gray" d="M654,-503C654,-509 648,-515 642,-515"/>
<polyline fill="none" stroke="gray" points="642,-515 20,-515 "/>
<path fill="none" stroke="gray" d="M20,-515C14,-515 8,-509 8,-503"/>
<polyline fill="none" stroke="gray" points="8,-503 8,-20 "/>
<path fill="none" stroke="gray" d="M8,-20C8,-14 14,-8 20,-8"/>
<text text-anchor="middle" x="331" y="-501.1" font-family="Times Roman,serif" font-size="11.00" fill="gray">global</text>
</g>
<!-- \\PgSQLWriter -->
<g id="node2" class="node"><title>\\PgSQLWriter</title>
<a xlink:href="LogEventWriter.PgSQLWriter.html" xlink:title="PgSQLWriter" target="_parent">
<polygon fill="none" stroke="black" points="601,-484 511,-484 511,-448 601,-448 601,-484"/>
<text text-anchor="middle" x="556" y="-463.1" font-family="Courier,monospace" font-size="11.00">PgSQLWriter</text>
</a>
</g>
<!-- \\LogEventWriter -->
<g id="node10" class="node"><title>\\LogEventWriter</title>
<a xlink:href="LogEventWriter.html" xlink:title="«abstract»&lt;br/&gt;LogEventWriter" target="_parent">
<polygon fill="none" stroke="black" points="357,-403 245,-403 245,-367 357,-367 357,-403"/>
<text text-anchor="start" x="267" y="-390.433" font-family="Courier,monospace" font-size="11.00">«abstract»</text>
<text text-anchor="start" x="253.5" y="-377.233" font-family="Courier,monospace" font-size="11.00">LogEventWriter</text>
</a>
</g>
<!-- \\PgSQLWriter&#45;&gt;\\LogEventWriter -->
<g id="edge3" class="edge"><title>\\PgSQLWriter&#45;&gt;\\LogEventWriter</title>
<path fill="none" stroke="black" d="M510.147,-452.484C495.971,-448.241 480.32,-443.491 466,-439 432.523,-428.502 395.376,-416.386 364.818,-406.295"/>
<polygon fill="none" stroke="black" points="365.734,-402.911 355.141,-403.094 363.536,-409.557 365.734,-402.911"/>
</g>
<!-- \\FileWriter -->
<g id="node3" class="node"><title>\\FileWriter</title>
<a xlink:href="LogEventWriter.FileWriter.html" xlink:title="FileWriter" target="_parent">
<polygon fill="none" stroke="black" points="598,-430 514,-430 514,-394 598,-394 598,-430"/>
<text text-anchor="middle" x="556" y="-409.1" font-family="Courier,monospace" font-size="11.00">FileWriter</text>
</a>
</g>
<!-- \\FileWriter&#45;&gt;\\LogEventWriter -->
<g id="edge5" class="edge"><title>\\FileWriter&#45;&gt;\\LogEventWriter</title>
<path fill="none" stroke="black" d="M513.892,-407.541C473.96,-403.313 413.346,-396.895 366.994,-391.988"/>
<polygon fill="none" stroke="black" points="367.348,-388.506 357.035,-390.933 366.611,-395.467 367.348,-388.506"/>
</g>
<!-- \\SocketWriter -->
<g id="node4" class="node"><title>\\SocketWriter</title>
<a xlink:href="LogEventWriter.SocketWriter.html" xlink:title="SocketWriter" target="_parent">
<polygon fill="none" stroke="black" points="605,-376 507,-376 507,-340 605,-340 605,-376"/>
<text text-anchor="middle" x="556" y="-355.1" font-family="Courier,monospace" font-size="11.00">SocketWriter</text>
</a>
</g>
<!-- \\SocketWriter&#45;&gt;\\LogEventWriter -->
<g id="edge7" class="edge"><title>\\SocketWriter&#45;&gt;\\LogEventWriter</title>
<path fill="none" stroke="black" d="M506.833,-363.206C467.09,-367.414 410.768,-373.378 367.083,-378.003"/>
<polygon fill="none" stroke="black" points="366.694,-374.524 357.119,-379.058 367.432,-381.486 366.694,-374.524"/>
</g>
<!-- \\LogPage -->
<g id="node5" class="node"><title>\\LogPage</title>
<a xlink:href="LogPage.html" xlink:title="LogPage" target="_parent">
<polygon fill="none" stroke="black" points="588,-322 524,-322 524,-286 588,-286 588,-322"/>
<text text-anchor="middle" x="556" y="-301.1" font-family="Courier,monospace" font-size="11.00">LogPage</text>
</a>
</g>
<!-- \\LogEvent -->
<g id="node6" class="node"><title>\\LogEvent</title>
<a xlink:href="LogEvent.html" xlink:title="LogEvent" target="_parent">
<polygon fill="none" stroke="black" points="591,-268 521,-268 521,-232 591,-232 591,-268"/>
<text text-anchor="middle" x="556" y="-247.1" font-family="Courier,monospace" font-size="11.00">LogEvent</text>
</a>
</g>
<!-- \\SqlHandler -->
<g id="node7" class="node"><title>\\SqlHandler</title>
<a xlink:href="LogEventHandler.SqlHandler.html" xlink:title="SqlHandler" target="_parent">
<polygon fill="none" stroke="black" points="598,-160 514,-160 514,-124 598,-124 598,-160"/>
<text text-anchor="middle" x="556" y="-139.1" font-family="Courier,monospace" font-size="11.00">SqlHandler</text>
</a>
</g>
<!-- \\AspectHandler -->
<g id="node9" class="node"><title>\\AspectHandler</title>
<a xlink:href="LogEventHandler.AspectHandler.html" xlink:title="AspectHandler" target="_parent">
<polygon fill="none" stroke="black" points="353,-133 249,-133 249,-97 353,-97 353,-133"/>
<text text-anchor="middle" x="301" y="-112.1" font-family="Courier,monospace" font-size="11.00">AspectHandler</text>
</a>
</g>
<!-- \\SqlHandler&#45;&gt;\\AspectHandler -->
<g id="edge9" class="edge"><title>\\SqlHandler&#45;&gt;\\AspectHandler</title>
<path fill="none" stroke="black" d="M513.892,-137.541C472.905,-133.202 410.131,-126.555 363.353,-121.602"/>
<polygon fill="none" stroke="black" points="363.642,-118.113 353.329,-120.541 362.905,-125.074 363.642,-118.113"/>
</g>
<!-- \\FunctionHandler -->
<g id="node8" class="node"><title>\\FunctionHandler</title>
<a xlink:href="LogEventHandler.FunctionHandler.html" xlink:title="FunctionHandler" target="_parent">
<polygon fill="none" stroke="black" points="615,-106 497,-106 497,-70 615,-70 615,-106"/>
<text text-anchor="middle" x="556" y="-85.1" font-family="Courier,monospace" font-size="11.00">FunctionHandler</text>
</a>
</g>
<!-- \\FunctionHandler&#45;&gt;\\AspectHandler -->
<g id="edge11" class="edge"><title>\\FunctionHandler&#45;&gt;\\AspectHandler</title>
<path fill="none" stroke="black" d="M496.857,-94.2622C456.845,-98.4988 404.081,-104.085 363.401,-108.393"/>
<polygon fill="none" stroke="black" points="362.91,-104.925 353.334,-109.459 363.647,-111.886 362.91,-104.925"/>
</g>
<!-- \\LogEventHandler -->
<g id="node13" class="node"><title>\\LogEventHandler</title>
<a xlink:href="LogEventHandler.html" xlink:title="«abstract»&lt;br/&gt;LogEventHandler" target="_parent">
<polygon fill="none" stroke="black" points="135,-106 17,-106 17,-70 135,-70 135,-106"/>
<text text-anchor="start" x="42" y="-93.4333" font-family="Courier,monospace" font-size="11.00">«abstract»</text>
<text text-anchor="start" x="25" y="-80.2333" font-family="Courier,monospace" font-size="11.00">LogEventHandler</text>
</a>
</g>
<!-- \\AspectHandler&#45;&gt;\\LogEventHandler -->
<g id="edge13" class="edge"><title>\\AspectHandler&#45;&gt;\\LogEventHandler</title>
<path fill="none" stroke="black" d="M248.815,-108.738C218.226,-105.067 179.192,-100.383 145.963,-96.3955"/>
<polygon fill="none" stroke="black" points="146.198,-92.8988 135.853,-95.1823 145.364,-99.8489 146.198,-92.8988"/>
</g>
<!-- \\LogEventWriterCollection -->
<g id="node11" class="node"><title>\\LogEventWriterCollection</title>
<a xlink:href="LogEventWriter.html" xlink:title="LogEventWriterCollection" target="_parent">
<polygon fill="none" stroke="black" points="645,-214 467,-214 467,-178 645,-178 645,-214"/>
<text text-anchor="middle" x="556" y="-193.1" font-family="Courier,monospace" font-size="11.00">LogEventWriterCollection</text>
</a>
</g>
<!-- \\LogEventWriterCollection&#45;&gt;\\LogEventWriter -->
<g id="edge15" class="edge"><title>\\LogEventWriterCollection&#45;&gt;\\LogEventWriter</title>
<path fill="none" stroke="black" d="M483.902,-214.137C477.676,-216.738 471.617,-219.68 466,-223 404.731,-259.215 349.19,-322.965 320.828,-358.743"/>
<polygon fill="none" stroke="black" points="317.945,-356.747 314.541,-366.78 323.459,-361.06 317.945,-356.747"/>
</g>
<!-- \\AspectLogger -->
<g id="node12" class="node"><title>\\AspectLogger</title>
<a xlink:href="AspectLogger.html" xlink:title="AspectLogger" target="_parent">
<polygon fill="none" stroke="black" points="605,-52 507,-52 507,-16 605,-16 605,-52"/>
<text text-anchor="middle" x="556" y="-31.1" font-family="Courier,monospace" font-size="11.00">AspectLogger</text>
</a>
</g>
<!-- \\LogEventHandlerCollection -->
<g id="node14" class="node"><title>\\LogEventHandlerCollection</title>
<a xlink:href="LogEventHandler.html" xlink:title="LogEventHandlerCollection" target="_parent">
<polygon fill="none" stroke="black" points="393,-79 209,-79 209,-43 393,-43 393,-79"/>
<text text-anchor="middle" x="301" y="-58.1" font-family="Courier,monospace" font-size="11.00">LogEventHandlerCollection</text>
</a>
</g>
<!-- \\LogEventHandlerCollection&#45;&gt;\\LogEventHandler -->
<g id="edge17" class="edge"><title>\\LogEventHandlerCollection&#45;&gt;\\LogEventHandler</title>
<path fill="none" stroke="black" d="M208.185,-72.1378C187.362,-74.6366 165.61,-77.2467 145.905,-79.6114"/>
<polygon fill="none" stroke="black" points="145.314,-76.1572 135.802,-80.8238 146.148,-83.1073 145.314,-76.1572"/>
</g>
</g>
</svg>
